<svg width="24" height="40" viewBox="0 0 24 40" fill="none" xmlns="http://www.w3.org/2000/svg">
<path d="M12.0217 38.7281C14.3249 38.7281 16.192 36.861 16.192 34.5578C16.192 32.2548 14.3249 30.3877 12.0217 30.3877C9.71862 30.3877 7.85156 32.2548 7.85156 34.5578C7.85156 36.861 9.71862 38.7281 12.0217 38.7281Z" fill="#3E4958"/>
<path fill-rule="evenodd" clip-rule="evenodd" d="M12.0213 31.4137C10.2846 31.4137 8.87672 32.8215 8.87672 34.5582C8.87672 36.2949 10.2846 37.7027 12.0213 37.7027C13.7579 37.7027 15.1658 36.2949 15.1658 34.5582C15.1658 32.8215 13.7579 31.4137 12.0213 31.4137ZM6.82544 34.5582C6.82544 31.6886 9.15169 29.3623 12.0213 29.3623C14.8909 29.3623 17.2171 31.6886 17.2171 34.5582C17.2171 37.4278 14.8909 39.754 12.0213 39.754C9.15169 39.754 6.82544 37.4278 6.82544 34.5582Z" fill="#FDFDFD"/>
<path fill-rule="evenodd" clip-rule="evenodd" d="M11.0104 21.9512H12.8703V33.8213H11.0104V21.9512Z" fill="#3E4958"/>
<path d="M12.0222 22.4642C18.0103 22.4642 22.8647 17.61 22.8647 11.6218C22.8647 5.63365 18.0103 0.779297 12.0222 0.779297C6.03404 0.779297 1.17969 5.63365 1.17969 11.6218C1.17969 17.61 6.03404 22.4642 12.0222 22.4642Z" fill="#DE408B"/>
<path fill-rule="evenodd" clip-rule="evenodd" d="M12.0219 1.29218C6.31701 1.29218 1.69226 5.91694 1.69226 11.6219C1.69226 17.3267 6.31701 21.9515 12.0219 21.9515C17.7269 21.9515 22.3516 17.3267 22.3516 11.6219C22.3516 5.91694 17.7269 1.29218 12.0219 1.29218ZM0.666626 11.6219C0.666626 5.35055 5.75057 0.266602 12.0219 0.266602C18.2933 0.266602 23.3773 5.35055 23.3773 11.6219C23.3773 17.8933 18.2933 22.9772 12.0219 22.9772C5.75057 22.9772 0.666626 17.8933 0.666626 11.6219Z" fill="#DE408B"/>
<path d="M12.0223 14.9585C13.8648 14.9585 15.3585 13.4647 15.3585 11.6223C15.3585 9.77977 13.8648 8.28613 12.0223 8.28613C10.1798 8.28613 8.68616 9.77977 8.68616 11.6223C8.68616 13.4647 10.1798 14.9585 12.0223 14.9585Z" fill="#F9FFFF"/>
</svg>
